<?xml version="1.0" standalone="no"?>
<!DOCTYPE svg PUBLIC "-//W3C//DTD SVG 20010904//EN"
 "http://www.w3.org/TR/2001/REC-SVG-20010904/DTD/svg10.dtd">
<svg version="1.0" xmlns="http://www.w3.org/2000/svg"
 width="300.000000pt" height="300.000000pt" viewBox="0 0 300.000000 300.000000"
 preserveAspectRatio="xMidYMid meet">

<g transform="translate(0.000000,300.000000) scale(0.100000,-0.100000)"
fill="#000000" stroke="none">
<path d="M190 2836 c0 -42 1 -76 3 -77 1 0 79 -13 172 -28 l170 -27 3 -452 2
-452 -195 0 -195 0 0 -30 0 -30 1345 -2 c740 -2 1350 -1 1355 0 6 2 10 17 10
33 l0 29 -245 0 -244 0 47 63 c93 123 133 246 133 412 0 304 -141 478 -463
569 -203 58 -225 59 -1095 63 l-803 4 0 -75z m1457 -180 c172 -55 243 -185
243 -444 0 -179 -23 -283 -82 -369 l-29 -43 -299 0 -300 0 0 441 0 441 208 -4
c156 -4 220 -9 259 -22z"/>
<path d="M150 1325 l0 -35 195 0 195 0 0 -488 0 -488 -112 -18 c-62 -9 -141
-22 -175 -28 l-63 -10 0 -74 0 -74 253 0 c138 0 468 -5 732 -11 634 -13 807
-1 1029 73 359 119 538 348 553 709 7 150 -10 243 -61 344 l-33 65 99 0 98 0
0 35 0 35 -1355 0 -1355 0 0 -35z m1882 -87 c49 -99 62 -170 62 -328 -2 -359
-121 -544 -375 -580 -69 -10 -461 -6 -516 6 l-23 4 0 475 0 475 413 0 414 0
25 -52z"/>
</g>
</svg>
